<svg width="25" height="25" viewBox="0 0 25 25" fill="none" xmlns="http://www.w3.org/2000/svg">
<path opacity="0.1" d="M12.0508 24.4922C18.5898 24.4922 24.0039 19.0664 24.0039 12.5391C24.0039 6 18.5781 0.585938 12.0391 0.585938C5.51172 0.585938 0.0976562 6 0.0976562 12.5391C0.0976562 19.0664 5.52344 24.4922 12.0508 24.4922ZM6.33203 12.5508C6.33203 11.9414 6.75391 11.5195 7.36328 11.5195H11.0312V7.85156C11.0312 7.24219 11.4414 6.80859 12.0391 6.80859C12.6484 6.80859 13.0703 7.24219 13.0703 7.85156V11.5195H16.75C17.3477 11.5195 17.7812 11.9414 17.7812 12.5508C17.7812 13.1484 17.3477 13.5469 16.75 13.5469H13.0703V17.2266C13.0703 17.8359 12.6484 18.2578 12.0391 18.2578C11.4414 18.2578 11.0312 17.8242 11.0312 17.2266V13.5469H7.36328C6.75391 13.5469 6.33203 13.1484 6.33203 12.5508Z" fill="black"/>
</svg>
